#!OML:ASF I:\salsa\salsa 7_09\Patient 1\Session 1\dancerfemale.ASF
:FULLY-SPECIFIED
:DEGREES
1562
root 2.76959 15.8114 8.46215 -890.067 313.003 168.143
lowerback 6.93543 -2.07799 -5.23839
upperback -5.84889 -3.96739 -3.3496
thorax -10.0643 -1.79752 -0.0234296
lowerneck 6.13686 -5.62989 -12.1979
upperneck 6.03529 -9.44146 15.4194
head 2.04821 -5.06808 6.62951
rclavicle -8.00108e-014 -3.53837e-014
rhumerus -42.2372 16.3738 -97.8525
rradius 97.5017
rwrist -56.6987
rhand -9.93589 45.3312
rfingers 7.12502
rthumb 16.0454 15.9756
lclavicle -8.00108e-014 -3.53837e-014
lhumerus 57.0528 -4.4888 31.8436
lradius 87.0636
lwrist -20.3225
lhand -37.1914 12.9083
lfingers 7.12502
lthumb -10.2593 42.6381
rfemur -21.2371 -0.954855 8.5421
rtibia 68.5065
rfoot -0.20604 -8.79562
rtoes -20.8792
lfemur -14.9243 17.8604 -38.7368
ltibia 30.454
lfoot -27.9891 16.0447
ltoes 29.7623
1563
root 2.84425 15.8572 8.49314 -890.621 315.084 169.042
lowerback 6.53629 -2.15204 -4.89152
upperback -5.94935 -4.03833 -3.49255
thorax -9.96824 -1.87493 -0.372413
lowerneck 5.73704 -5.04237 -11.6411
upperneck 6.46115 -8.63962 15.3491
head 2.09389 -4.65056 6.52476
rclavicle 6.93758e-014 3.47873e-014
rhumerus -41.7784 17.0117 -96.6748
rradius 98.6988
rwrist -56.0367
rhand -9.83191 45.0855
rfingers 7.12502
rthumb 16.1455 15.738
lclavicle 6.93758e-014 3.47873e-014
lhumerus 55.8774 -5.10541 31.6907
lradius 86.3244
lwrist -21.0004
lhand -37.1224 12.4527
lfingers 7.12502
lthumb -10.1927 42.1858
rfemur -19.4794 -2.07492 8.62716
rtibia 67.2203
rfoot 0.240681 -9.19759
rtoes -18.9919
lfemur -15.3855 17.3053 -38.3747
ltibia 29.9054
lfoot -28.3282 17.8382
ltoes 30.8196
1564
root 2.92946 15.8948 8.51907 -891.47 316.726 170.411
lowerback 6.22386 -2.31534 -4.26735
upperback -6.01677 -4.17066 -3.43738
thorax -9.88712 -1.98532 -0.653036
lowerneck 5.26559 -4.52382 -11.1455
upperneck 6.88188 -7.93283 15.3036
head 2.1721 -4.27606 6.4315
rclavicle 6.99722e-014 6.36111e-015
rhumerus -41.0641 18.5861 -95.2589
rradius 99.9553
rwrist -55.9823
rhand -10.857 45.5309
rfingers 7.12502
rthumb 15.1582 16.1061
lclavicle 6.99722e-014 6.36111e-015
lhumerus 54.8077 -5.53688 31.6764
lradius 85.4994
lwrist -21.646
lhand -36.9549 12.2822
lfingers 7.12502
lthumb -10.0312 42.0231
rfemur -17.578 -3.23883 9.26358
rtibia 65.4947
rfoot 0.566083 -9.36102
rtoes -17.2698
lfemur -15.9555 17.2003 -37.531
ltibia 29.6494
lfoot -28.9984 19.1979
ltoes 31.916
1565
root 3.02466 15.9224 8.54025 -892.371 318.189 171.809
lowerback 5.96931 -2.50187 -3.6901
upperback -5.981 -4.3253 -3.32488
thorax -9.72099 -2.09802 -0.844133
lowerneck 4.74131 -4.0916 -10.5567
upperneck 7.16846 -7.31884 15.2382
head 2.23369 -3.94132 6.31227
rclavicle 6.45553e-014 2.78299e-014
rhumerus -40.1327 19.5268 -93.8406
rradius 101.155
rwrist -56.0418
rhand -10.6867 45.033
rfingers 7.12502
rthumb 15.3223 15.6206
lclavicle 6.45553e-014 2.78299e-014
lhumerus 53.9126 -5.77691 31.6686
lradius 84.5964
lwrist -22.0734
lhand -36.7647 12.1613
lfingers 7.12502
lthumb -9.8476 41.911
rfemur -15.5628 -4.32337 10.0351
rtibia 63.3354
rfoot 0.929161 -9.28914
rtoes -16.1647
lfemur -16.5892 17.8835 -36.6361
ltibia 29.6401
lfoot -28.12 20.0198
ltoes 28.4029
1566
root 3.1156 15.9547 8.55451 -893.076 319.692 173.072
lowerback 5.6608 -2.62617 -3.21022
upperback -6.00753 -4.41555 -3.20516
thorax -9.58817 -2.17341 -0.985305
lowerneck 4.33332 -3.72469 -10.0895
upperneck 7.39548 -6.82318 15.3053
head 2.28623 -3.67346 6.25651
rclavicle 9.74542e-014 7.95139e-015
rhumerus -39.3171 19.8709 -92.5439
rradius 102.328
rwrist -56.3099
rhand -9.5857 44.0576
rfingers 7.12502
rthumb 16.3826 14.7295
lclavicle 9.74542e-014 7.95139e-015
lhumerus 53.0468 -6.03739 31.6628
lradius 83.6584
lwrist -22.3807
lhand -36.776 12.0836
lfingers 7.12502
lthumb -9.85858 41.8328
rfemur -13.5494 -5.10634 10.7489
rtibia 60.6465
rfoot 1.02331 -9.05264
rtoes -19.1762
lfemur -17.3777 18.7286 -35.7703
ltibia 29.843
lfoot -29.137 20.9045
ltoes 35.2181
1567
root 3.20801 15.9932 8.56607 -893.5 321.149 174.313
lowerback 5.16366 -2.68764 -2.72952
upperback -6.10251 -4.42389 -3.06848
thorax -9.41878 -2.21174 -1.1291
lowerneck 3.93528 -3.40131 -9.74454
upperneck 7.62892 -6.41336 15.5176
head 2.35981 -3.45057 6.26615
rclavicle -6.80341e-014 2.46493e-014
rhumerus -38.5862 20.207 -91.2247
rradius 103.598
rwrist -56.8221
rhand -8.66266 42.9393
rfingers 7.12502
rthumb 17.2711 13.6867
lclavicle -6.80341e-014 2.46493e-014
lhumerus 52.3229 -6.25793 31.656
lradius 82.6592
lwrist -22.8536
lhand -36.977 11.7759
lfingers 7.12502
lthumb -10.0524 41.5159
rfemur -11.723 -5.61484 11.5884
rtibia 57.392
rfoot 1.08347 -8.65663
rtoes -20.5123
lfemur -18.4922 19.3881 -34.8629
ltibia 30.2469
lfoot -29.4921 21.5113
ltoes 35.2035
1568
root 3.31089 16.03 8.58174 -893.778 322.527 175.631
lowerback 4.54508 -2.69025 -2.1893
upperback -6.18128 -4.34372 -2.90409
thorax -9.16077 -2.21043 -1.29518
lowerneck 3.58056 -3.14156 -9.47184
upperneck 7.70974 -6.08801 15.8526
head 2.39883 -3.27213 6.32688
rclavicle -8.54774e-015 2.14687e-014
rhumerus -37.8049 20.6162 -89.8672
rradius 104.882
rwrist -57.094
rhand -8.00742 41.814
rfingers 7.12502
rthumb 17.9017 12.6179
lclavicle -8.54774e-015 2.14687e-014
lhumerus 51.9094 -6.38284 31.5663
lradius 81.6074
lwrist -23.3852
lhand -37.0577 11.7259
lfingers 7.12502
lthumb -10.1303 41.462
rfemur -10.0795 -5.83 12.6782
rtibia 53.5853
rfoot 1.65755 -8.47689
rtoes -23.5412
lfemur -19.9411 19.9936 -33.8762
ltibia 30.8929
lfoot -29.7543 22.0468
ltoes 34.6149
1569
root 3.41994 16.0632 8.60059 -894.066 323.843 177.247
lowerback 3.88846 -2.68701 -1.38858
upperback -6.31976 -4.23109 -2.60152
thorax -8.95193 -2.20316 -1.46446
lowerneck 3.35001 -2.8884 -9.38734
upperneck 7.67228 -5.76544 16.2169
head 2.38874 -3.10392 6.43305
rclavicle -7.20594e-014 2.62396e-014
rhumerus -37.1502 21.2073 -88.6393
rradius 106.025
rwrist -56.7243
rhand -7.66524 41.0946
rfingers 7.12502
rthumb 18.2309 11.9289
lclavicle -7.20594e-014 2.62396e-014
lhumerus 51.543 -6.44534 31.4003
lradius 80.5161
lwrist -23.7335
lhand -37.1159 12.2192
lfingers 7.12502
lthumb -10.1865 41.9526
rfemur -8.57976 -5.86007 14.1414
rtibia 49.2651
rfoot 2.22869 -8.37498
rtoes -29.0672
lfemur -21.6897 20.4753 -32.6111
ltibia 31.819
lfoot -30.0814 22.5779
ltoes 34.9288
1570
root 3.52911 16.0869 8.61852 -894.369 325.078 179.014
lowerback 3.22334 -2.67166 -0.362283
upperback -6.48252 -4.0962 -2.24088
thorax -8.77562 -2.19783 -1.7
lowerneck 3.1279 -2.65177 -9.28784
upperneck 7.68323 -5.45915 16.4567
head 2.38997 -2.94299 6.49663
rclavicle 7.03698e-014 5.08889e-014
rhumerus -36.6232 22.0179 -87.5997
rradius 107.058
rwrist -56.0564
rhand -7.96154 40.557
rfingers 7.12502
rthumb 17.9458 11.365
lclavicle 7.03698e-014 5.08889e-014
lhumerus 51.1678 -6.43272 31.2294
lradius 79.433
lwrist -24.0811
lhand -37.3247 12.5507
lfingers 7.12502
lthumb -10.3879 42.2741
rfemur -7.12259 -6.07795 15.7546
rtibia 44.7794
rfoot 1.70723 -7.69191
rtoes -28.4654
lfemur -23.3806 20.1775 -31.0804
ltibia 32.7635
lfoot -30.6854 23.727
ltoes 35.5405
1571
root 3.63808 16.094 8.63235 -894.686 326.231 180.531
lowerback 2.66963 -2.59828 0.508735
upperback -6.55122 -3.91155 -1.95861
thorax -8.5553 -2.15806 -1.93343
lowerneck 2.86181 -2.47729 -9.11762
upperneck 7.77974 -5.24323 16.623
head 2.43249 -2.82253 6.52114
rclavicle 2.38542e-014 -5.56597e-015
rhumerus -36.0988 22.8327 -86.6444
rradius 108.058
rwrist -55.8964
rhand -8.77213 40.2635
rfingers 7.12502
rthumb 17.1658 11.0018
lclavicle 2.38542e-014 -5.56597e-015
lhumerus 50.9765 -6.35954 31.0734
lradius 78.3795
lwrist -24.6246
lhand -37.5798 12.9744
lfingers 7.12502
lthumb -10.6339 42.6854
rfemur -5.40254 -6.68781 17.0902
rtibia 40.3341
rfoot -0.0449512 -6.28714
rtoes -31.5072
lfemur -24.7232 19.0766 -29.5072
ltibia 33.698
lfoot -31.6323 25.5036
ltoes 36.2436
